<svg width="25" height="27" viewBox="0 0 25 27" fill="none" xmlns="http://www.w3.org/2000/svg"><path d="M10.2564 27C11.6667 27 12.8205 25.8462 12.8205 24.4359H7.69231C7.69231 25.8462 8.83333 27 10.2564 27ZM17.9487 19.3077V12.8974C17.9487 8.96154 15.8462 5.66667 12.1795 4.79487V3.92308C12.1795 2.85897 11.3205 2 10.2564 2C9.19231 2 8.33333 2.85897 8.33333 3.92308V4.79487C4.65385 5.66667 2.5641 8.94872 2.5641 12.8974V19.3077L0 21.8718V23.1538H20.5128V21.8718L17.9487 19.3077Z" fill="white"></path><circle cx="18" cy="7" r="7" fill="#FF0000"></circle><path d="M18.9823 10.7002H18.0186V4.31212L16.0861 5.02191V4.15151L18.832 3.12051H18.9823V10.7002Z" fill="white"></path></svg>