<svg class="challenge__footerIconsBulb" width="24" height="23" viewBox="0 0 24 23" fill="none" xmlns="http://www.w3.org/2000/svg" title="Ideas"><path d="M20.4529 3.5241C20.0273 3.09594 19.3397 3.09594 18.9141 3.5241L18.4884 3.95227C18.0628 4.38043 18.0737 5.07208 18.4884 5.48926L18.4993 5.50024C18.925 5.9284 19.6126 5.9284 20.0382 5.50024L20.4638 5.07208C20.8786 4.63294 20.8786 3.95227 20.4529 3.5241ZM12.0055 8.58752e-07L11.9945 8.57798e-07C11.3943 8.05321e-07 10.9141 0.483056 10.9141 1.08687L10.9141 2.14081C10.9141 2.74463 11.3943 3.22769 11.9945 3.22769L12.0055 3.22769C12.6057 3.22769 13.0859 2.74463 13.0859 2.14081L13.0859 1.08687C13.0859 0.483056 12.6057 9.1123e-07 12.0055 8.58752e-07ZM21.8063 13.1193L22.9195 13.1193C23.5198 13.1193 24 12.6363 24 12.0325L24 12.0215C24 11.4177 23.5198 10.9346 22.9195 10.9346L21.8172 10.9346C21.2169 10.9346 20.7367 11.4177 20.7367 12.0215L20.7367 12.0325C20.7258 12.6363 21.206 13.1193 21.8063 13.1193ZM8.72033 17.7193L8.72033 21.9021C8.72033 22.506 9.21146 23 9.81173 23L14.1774 23C14.7776 23 15.2688 22.506 15.2688 21.9021L15.2688 17.7193C17.4952 16.4239 18.8922 13.8549 18.4666 10.9895C18.03 8.12411 15.6726 5.8296 12.8131 5.47828C8.84038 4.99523 5.44611 8.11313 5.44611 12.0105C5.44611 14.4587 6.76671 16.5776 8.72033 17.7193ZM3.2633 12.0325L3.2633 12.0215C3.2633 11.4177 2.78308 10.9346 2.18281 10.9346L1.08049 10.9346C0.480218 10.9346 -8.94789e-07 11.4177 -9.47576e-07 12.0215L-9.48536e-07 12.0325C-1.00132e-06 12.6363 0.480218 13.1193 1.08049 13.1193L2.18281 13.1193C2.78308 13.1193 3.2633 12.6363 3.2633 12.0325ZM5.5116 3.94129L5.08595 3.51313C4.6603 3.08496 3.97272 3.08496 3.54707 3.51313C3.12142 3.94129 3.12142 4.63294 3.54707 5.0611L3.97272 5.48926C4.39836 5.91742 5.08595 5.90644 5.50068 5.48926C5.93724 5.05012 5.93724 4.36945 5.5116 3.94129Z" fill="#818181"></path></svg>