<svg class="NavBar__svg" width="16" height="13" viewBox="0 0 16 13" fill="none" xmlns="http://www.w3.org/2000/svg"><path d="M13.5983 2.40181C13.3859 2.18946 13.0526 2.15815 12.8043 2.32731C11.8691 2.96474 7.1784 6.17009 6.67427 6.67418C5.94321 7.40527 5.94321 8.59477 6.67427 9.32587C7.0398 9.69137 7.51999 9.87415 8.00012 9.87415C8.48024 9.87415 8.9604 9.69137 9.32596 9.32587C9.83005 8.82174 13.0354 4.13099 13.6728 3.19581C13.8419 2.94759 13.8106 2.61421 13.5983 2.40181ZM8.44202 8.44196C8.19837 8.68568 7.80184 8.68568 7.55818 8.44196C7.31449 8.19831 7.31446 7.8019 7.55805 7.55821C7.75393 7.36465 9.08571 6.41484 10.7243 5.27587C9.58534 6.91443 8.63552 8.24615 8.44202 8.44196Z" fill="white"></path><path d="M2.88222 10.907L2.11066 11.2834C1.54609 10.2758 1.25 9.15122 1.25 8C1.25 7.15653 1.40553 6.34869 1.68937 5.60365L2.57347 6.02772C2.66066 6.06953 2.75269 6.08934 2.84334 6.08934C3.07625 6.08934 3.29984 5.95856 3.40731 5.7345C3.55656 5.42328 3.42531 5.04994 3.11406 4.90066L2.24119 4.48197C3.32609 2.71259 5.20319 1.479 7.37503 1.27869V2.21872C7.37503 2.56391 7.65484 2.84372 8.00003 2.84372C8.34522 2.84372 8.62503 2.56391 8.62503 2.21872V1.27822C9.36965 1.346 10.0902 1.53562 10.7741 1.84437C11.0887 1.98641 11.4589 1.84644 11.6009 1.53191C11.7429 1.21728 11.603 0.847125 11.2884 0.705093C10.252 0.23725 9.14559 0 8 0C5.86312 0 3.85416 0.832125 2.34312 2.34312C0.832156 3.85416 0 5.86312 0 8C0 9.57906 0.468687 11.1148 1.35541 12.4411C1.47484 12.6197 1.67231 12.7188 1.87537 12.7188C1.96769 12.7188 2.06119 12.6983 2.14903 12.6555L3.43028 12.0305C3.74053 11.8791 3.86934 11.505 3.718 11.1947C3.56666 10.8845 3.19247 10.7557 2.88222 10.907Z" fill="white"></path><path d="M15.295 4.71178C15.153 4.39719 14.783 4.25719 14.4682 4.39929C14.1536 4.54132 14.0137 4.91147 14.1558 5.22607C14.5502 6.09975 14.7502 7.0331 14.7502 8.00016C14.7502 9.1531 14.4531 10.2795 13.8869 11.2882L13.0814 10.9046C12.7698 10.7563 12.3968 10.8885 12.2484 11.2002C12.1 11.5118 12.2323 11.8848 12.544 12.0332L13.8565 12.6582C13.9428 12.6993 14.0343 12.719 14.1248 12.719C14.328 12.719 14.5255 12.6198 14.6447 12.4413C15.5315 11.115 16.0002 9.57922 16.0002 8.00016C16.0002 6.85457 15.7629 5.74819 15.295 4.71178Z" fill="white"></path></svg>