<svg class="challenge__footerIconsBulb" width="21" height="19" viewBox="0 0 21 19" fill="none" xmlns="http://www.w3.org/2000/svg" title="Favorite"><path d="M18.4001 1.03193C15.6501 -0.843069 12.2543 0.0319315 10.421 2.17776C8.58762 0.0319315 5.19179 -0.853485 2.44179 1.03193C0.983458 2.03193 0.0667911 3.71943 0.00429112 5.50068C-0.141542 9.54235 3.44179 12.7819 8.91054 17.7507L9.01471 17.8444C9.80637 18.5632 11.0251 18.5632 11.8168 17.834L11.9314 17.7299C17.4001 12.7715 20.973 9.53193 20.8376 5.49027C20.7751 3.71943 19.8585 2.03193 18.4001 1.03193ZM10.5251 16.1986L10.421 16.3028L10.3168 16.1986C5.35846 11.709 2.08762 8.74027 2.08762 5.72985C2.08762 3.64652 3.65012 2.08401 5.73346 2.08401C7.33762 2.08401 8.90012 3.11527 9.45221 4.54235H11.4001C11.9418 3.11527 13.5043 2.08401 15.1085 2.08401C17.1918 2.08401 18.7543 3.64652 18.7543 5.72985C18.7543 8.74027 15.4835 11.709 10.5251 16.1986Z" fill="red"></path></svg>