<svg width="15" height="16" viewBox="0 0 15 16" fill="none" xmlns="http://www.w3.org/2000/svg" style="margin-left: 10px; margin-top: 8px;"><path d="M10.1751 3.44983C9.99203 3.26672 9.69542 3.26672 9.51231 3.44983L0.137334 12.8248C-0.045778 13.0079 -0.045778 13.3045 0.137334 13.4876L2.01234 15.3626C2.10388 15.4542 2.22382 15.5 2.34377 15.5C2.46371 15.5 2.58363 15.4542 2.6752 15.3626L12.0501 5.98767C12.2333 5.80456 12.2333 5.50795 12.0501 5.32484L10.1751 3.44983ZM2.34374 14.3684L1.1316 13.1562L7.49998 6.78786L8.71215 8.00003C8.71215 8 2.34374 14.3684 2.34374 14.3684ZM9.37499 7.33716L8.16282 6.12499L9.84371 4.4441L11.0559 5.65627L9.37499 7.33716Z" fill="#3E3E3E"></path><path d="M6.5625 4.25C7.03126 3.31252 7.49999 2.84376 8.4375 2.375C7.50002 1.90624 7.03126 1.43752 6.5625 0.5C6.09374 1.43749 5.62495 1.90624 4.6875 2.375C5.62502 2.84376 6.09374 3.31252 6.5625 4.25Z" fill="#3E3E3E"></path><path d="M14.0625 7.0625C13.8281 7.53126 13.5937 7.76562 13.125 7.99999C13.5938 8.23435 13.8281 8.46874 14.0625 8.93747C14.2968 8.46871 14.5312 8.23435 15 7.99999C14.5312 7.76562 14.2969 7.53123 14.0625 7.0625Z" fill="#3E3E3E"></path><path d="M14.0625 1.90624C13.3594 1.55467 13.0078 1.20312 12.6562 0.5C12.3047 1.20312 11.9531 1.5547 11.25 1.90624C11.9531 2.25782 12.3047 2.60937 12.6562 3.31249C13.0078 2.60937 13.3594 2.25779 14.0625 1.90624Z" fill="#3E3E3E"></path></svg>